Coordinates
version=1
nRows=17
nColumns=40
inDegrees=yes

Units are S.I. units (second, meters, Newtons, ...)
Angles are in degrees.

endheader
time	pelvis_tilt	pelvis_list	pelvis_rotation	pelvis_tx	pelvis_ty	pelvis_tz	hip_flexion_r	hip_adduction_r	hip_rotation_r	knee_angle_r	knee_angle_r_beta	ankle_angle_r	subtalar_angle_r	mtp_angle_r	hip_flexion_l	hip_adduction_l	hip_rotation_l	knee_angle_l	knee_angle_l_beta	ankle_angle_l	subtalar_angle_l	mtp_angle_l	lumbar_extension	lumbar_bending	lumbar_rotation	arm_flex_r	arm_add_r	arm_rot_r	elbow_flex_r	pro_sup_r	wrist_flex_r	wrist_dev_r	arm_flex_l	arm_add_l	arm_rot_l	elbow_flex_l	pro_sup_l	wrist_flex_l	wrist_dev_l
      1.32000000	     -2.18822978	      0.58985253	      6.67539512	      0.37901519	      0.88016448	      1.05144212	     30.74334830	     -7.31847226	    -13.74397721	    -22.78772884	     -0.39772090	      4.01468372	     -7.09923162	     16.24814279	      0.85829870	      1.34452758	     11.24172970	    -25.98783008	     -0.45357320	     14.68640635	     -1.12994059	     -4.96150981	     -5.26340929	     -1.88742043	    -10.90635540	     -7.40530946	     -5.87436982	    -18.41124860	     18.75407937	     89.95437384	      0.00000000	      0.00000000	     13.29121250	     15.02486626	     17.85809303	     46.75944803	     89.95437384	      0.00000000	      0.00000000
      1.33000000	     -2.08390109	      0.43510533	      6.91548825	      0.38899695	      0.87927846	      1.05197963	     30.79679089	     -7.56349647	    -15.77138778	    -21.63065680	     -0.37752618	      4.55782406	     -2.95039940	     13.78173436	      0.12934121	      1.97430140	     11.95642072	    -26.13697216	     -0.45617622	     14.32414858	     -2.90839939	     -6.03311582	     -5.30722290	     -1.66057040	    -11.08991453	     -7.66683067	     -5.75245872	    -18.88717946	     18.67747619	     89.95437384	      0.00000000	      0.00000000	     13.42779439	     15.00477646	     17.99975414	     47.16023628	     89.95437384	      0.00000000	      0.00000000
      1.34000000	     -2.38033437	      0.43668212	      7.04498297	      0.39844776	      0.87791489	      1.05265996	     31.19511012	     -7.50514404	    -15.83307499	    -20.35780821	     -0.35531078	      4.53676389	     -2.00051505	     13.32320795	     -0.10443834	      2.12186824	     11.87116993	    -26.35444489	     -0.45997184	     14.29488066	     -2.88203429	     -6.15943497	     -4.95078387	     -1.64567315	    -11.21559770	     -7.92227482	     -5.68364304	    -18.91617362	     18.59328057	     89.95437384	      0.00000000	      0.00000000	     13.50561137	     14.98960467	     18.17345289	     47.44111604	     89.95437384	      0.00000000	      0.00000000
      1.35000000	     -2.22139278	      0.24822815	      7.28401913	      0.40868894	      0.87719626	      1.05335157	     31.01709386	     -7.42277305	    -16.94596442	    -19.49316120	     -0.34021984	      4.65787880	      0.34947828	     11.65053016	     -0.87378520	      2.67472208	     12.03620526	    -26.52352361	     -0.46292282	     14.08579744	     -3.53057207	     -7.02630841	     -5.02432835	     -1.35867043	    -11.43932157	     -8.14848468	     -5.64364882	    -18.95574137	     18.51983393	     89.95437384	      0.00000000	      0.00000000	     13.53796761	     14.86990693	     18.58431947	     47.72121773	     89.95437384	      0.00000000	      0.00000000
      1.36000000	     -2.42047172	      0.37193524	      7.43191869	      0.41866827	      0.87589995	      1.05403115	     31.30942913	     -7.46047942	    -16.81745676	    -19.03887969	     -0.33229114	      4.86497923	      0.57688100	     11.37093562	     -1.25263643	      2.71281998	     11.88119342	    -26.72202330	     -0.46638729	     13.97138651	     -3.49047633	     -7.02198608	     -4.72220250	     -1.46626569	    -11.52360116	     -8.40371924	     -5.57080335	    -18.96500494	     18.44811760	     89.95437384	      0.00000000	      0.00000000	     13.53343180	     14.86161542	     18.63443331	     47.87132093	     89.95437384	      0.00000000	      0.00000000
      1.37000000	     -2.44215731	      0.36394584	      7.62592222	      0.42918512	      0.87493878	      1.05486090	     31.23678905	     -7.29610578	    -16.61297036	    -18.72505202	     -0.32681381	      5.34253200	      0.84041922	     11.01977153	     -1.82931846	      2.90844300	     11.53837803	    -26.91361184	     -0.46973114	     13.85397766	     -3.44272241	     -7.06044528	     -4.55247473	     -1.41551829	    -11.68358702	     -8.56534690	     -5.51610259	    -19.07351372	     18.21933707	     89.95437384	      0.00000000	      0.00000000	     13.45166675	     14.72790762	     18.99137559	     47.97451498	     89.95437384	      0.00000000	      0.00000000
      1.38000000	     -2.57402223	      0.48018721	      7.75134253	      0.43953904	      0.87365543	      1.05574750	     31.46214919	     -7.30329055	    -16.32914605	    -19.04674803	     -0.33242846	      5.18889905	      0.81251939	     10.77729012	     -2.18347732	      2.97360981	     11.24575932	    -27.35098983	     -0.47736483	     13.48689471	     -3.30768810	     -6.92663783	     -4.31931455	     -1.50867670	    -11.67117186	     -8.96164337	     -5.45467230	    -19.00678482	     18.41237518	     89.95437384	      0.00000000	      0.00000000	     13.32278684	     14.67613025	     19.01267368	     48.14273266	     89.95437384	      0.00000000	      0.00000000
      1.39000000	     -1.98384500	      0.30400390	      8.16464275	      0.45105832	      0.87365290	      1.05624099	     30.47537987	     -6.98873650	    -16.55125140	    -19.19932590	     -0.33509145	      6.05485184	      0.06852534	     10.36098550	     -3.46234699	      3.38292285	     10.38784797	    -27.45712976	     -0.47921732	     13.22811304	     -2.82426551	     -7.07310933	     -4.72468346	     -1.12370494	    -12.18472389	     -8.84692217	     -5.44181912	    -19.38416708	     17.96321849	     89.95437384	      0.00000000	      0.00000000	     13.00364007	     14.33481902	     20.02229430	     48.31426227	     89.95437384	      0.00000000	      0.00000000
      1.40000000	     -2.15121390	      0.43935625	      8.27390662	      0.46209499	      0.87235235	      1.05728773	     30.47428541	     -6.97107121	    -16.23951903	    -19.68772797	     -0.34361568	      5.82008053	      0.00442340	     10.13068514	     -3.76638186	      3.43455200	     10.06702008	    -27.93092648	     -0.48748663	     12.87437813	     -2.68928366	     -6.93294306	     -4.36311357	     -1.25266822	    -12.09665956	     -9.28315496	     -5.38066600	    -19.30273446	     18.15993478	     89.95437384	      0.00000000	      0.00000000	     12.72801054	     14.22236713	     20.01646879	     48.39051049	     89.95437384	      0.00000000	      0.00000000
      1.41000000	     -1.69975024	      0.28656287	      8.55276123	      0.47352066	      0.87218718	      1.05806443	     29.73463754	     -6.53952958	    -15.84059126	    -20.44127392	     -0.35676753	      5.27547874	     -2.61313471	      9.82177556	     -4.85688057	      3.63863952	      8.69523239	    -28.08453692	     -0.49016764	     12.72864125	     -0.94942089	     -7.15714376	     -4.63114965	     -0.90110606	    -12.36135724	     -9.15998870	     -5.39724547	    -19.59397377	     17.69720452	     89.95437384	      0.00000000	      0.00000000	     12.43285591	     13.82905064	     20.86831803	     48.38125067	     89.95437384	      0.00000000	      0.00000000
      1.42000000	     -1.85189464	      0.27334429	      8.71313987	      0.48467279	      0.87093926	      1.05909251	     29.65069946	     -6.30062990	    -15.27271054	    -21.09566093	     -0.36818874	      3.72993507	     -4.37109325	      9.43822266	     -5.04258085	      3.67022821	      7.64615715	    -28.75415016	     -0.50185459	     12.47578802	      0.54450912	     -7.50306971	     -4.23332563	     -0.83505020	    -12.36654418	     -9.35947571	     -5.39520211	    -19.56216783	     17.59664595	     89.95437384	      0.00000000	      0.00000000	     12.09641396	     13.57001913	     21.15460582	     48.17709098	     89.95437384	      0.00000000	      0.00000000
      1.43000000	     -1.96074961	      0.19260709	      8.84837373	      0.49558713	      0.86994048	      1.05999679	     29.58505543	     -6.11261906	    -15.25183648	    -21.62274670	     -0.37738812	      1.54887758	     -5.90558796	      9.33861654	     -5.16257545	      3.72533199	      6.42023927	    -29.56132564	     -0.51594246	     12.06849358	      2.00014711	     -7.72596907	     -3.92338847	     -0.62696859	    -12.26751353	     -9.49189018	     -5.44023587	    -19.62308288	     17.50707024	     89.95437384	      0.00000000	      0.00000000	     11.86756678	     13.17911922	     21.52253947	     47.85274837	     89.95437384	      0.00000000	      0.00000000
      1.44000000	     -2.01034266	      0.04188293	      8.85158304	      0.50665843	      0.86921289	      1.06137407	     29.69641788	     -5.83921316	    -15.00425617	    -22.70179248	     -0.39622102	      0.76160295	     -6.08796649	      9.11702948	     -5.31467338	      3.99933754	      5.69470818	    -30.40199518	     -0.53061492	     11.34972114	      2.58154135	     -7.53423225	     -3.62811774	     -0.36159357	    -12.04283400	     -9.59511119	     -5.49044626	    -19.48839801	     17.37427135	     89.95437384	      0.00000000	      0.00000000	     11.60408987	     12.84148798	     21.75989051	     47.33742255	     89.95437384	      0.00000000	      0.00000000
      1.45000000	     -2.37046476	     -0.21782699	      8.95614497	      0.51725732	      0.86831116	      1.06271860	     30.19133151	     -5.48224260	    -14.31634937	    -23.85410939	     -0.41633275	     -0.59779876	     -7.10342082	      8.83822549	     -4.75207910	      4.16215159	      4.36266178	    -31.81433698	     -0.55526493	     10.68672803	      4.67913201	     -7.41508573	     -3.03759658	     -0.02713658	    -11.95473528	     -9.51185875	     -5.51327153	    -19.64688987	     17.06111515	     89.95437384	      0.00000000	      0.00000000	     11.26414257	     12.40033646	     22.28052762	     46.89549799	     89.95437384	      0.00000000	      0.00000000
      1.46000000	     -2.30739084	     -0.39095056	      8.78420776	      0.52847217	      0.86819247	      1.06436797	     30.23885612	     -5.09557097	    -13.57200484	    -25.23094579	     -0.44036308	     -1.17079413	     -6.80216052	      8.54742990	     -4.83244887	      4.38438267	      3.62024707	    -32.98385284	     -0.57567683	      9.72944875	      4.92218108	     -7.13367110	     -2.92401647	      0.28121001	    -11.54221387	     -9.59579208	     -5.60677802	    -19.40634205	     17.17193346	     89.95437384	      0.00000000	      0.00000000	     10.74299876	     12.11334435	     22.25031314	     46.68319196	     89.95437384	      0.00000000	      0.00000000
      1.47000000	     -2.62422999	     -0.85204050	      8.66505029	      0.53935476	      0.86785917	      1.06589124	     30.51251495	     -4.40564146	    -13.05311989	    -26.07051058	     -0.45501625	     -2.36191617	     -7.97244096	      8.55722435	     -4.03994634	      4.76819289	      2.89041613	    -34.81664118	     -0.60766502	      8.51068598	      7.58120511	     -6.89827123	     -2.32101291	      0.86202024	    -11.30246080	     -9.34165779	     -5.82507200	    -18.96445668	     16.62069614	     89.95437384	      0.00000000	      0.00000000	     10.21850733	     11.59520616	     22.80954897	     46.07691848	     89.95437384	      0.00000000	      0.00000000
      1.48000000	     -2.53717560	     -1.18588171	      8.41908892	      0.55077033	      0.86829047	      1.06762587	     30.18613174	     -3.76786899	    -12.72520981	    -26.79418020	     -0.46764666	     -2.57343603	     -8.42284570	      8.45827012	     -3.81936053	      5.16934866	      2.53790299	    -36.41972962	     -0.63564419	      6.71532781	      8.85728516	     -6.56609682	     -2.16094493	      1.32942893	    -10.93508177	     -9.08557508	     -5.98522232	    -18.74952522	     16.25871949	     89.95437384	      0.00000000	      0.00000000	      9.59593861	     11.24469677	     22.93424711	     45.57961823	     89.95437384	      0.00000000	      0.00000000
